<svg width="12" height="15" viewBox="0 0 12 15" fill="none" xmlns="http://www.w3.org/2000/svg">
<path d="M2.91667 12.8332H9.08333C9.13889 12.8332 9.19444 12.8054 9.25 12.7498C9.30556 12.6943 9.33333 12.6387 9.33333 12.5832V4.49984H2.66667V12.5832C2.66667 12.6387 2.69444 12.6943 2.75 12.7498C2.80556 12.8054 2.86111 12.8332 2.91667 12.8332ZM0.6875 2.24984V0.999837H3.16667L4 0.166504H8L8.83333 0.999837H11.3125V2.24984H0.6875ZM2.91667 14.0832C2.5 14.0832 2.14583 13.9373 1.85417 13.6457C1.5625 13.354 1.41667 12.9998 1.41667 12.5832V3.24984H10.5833V12.5832C10.5833 12.9998 10.4375 13.354 10.1458 13.6457C9.85417 13.9373 9.5 14.0832 9.08333 14.0832H2.91667ZM2.66667 12.8332H9.33333C9.33333 12.8332 9.30556 12.8332 9.25 12.8332C9.19444 12.8332 9.13889 12.8332 9.08333 12.8332H2.91667C2.86111 12.8332 2.80556 12.8332 2.75 12.8332C2.69444 12.8332 2.66667 12.8332 2.66667 12.8332Z" fill="white" fill-opacity="0.56"/>
</svg>
