<svg width="16" height="15" viewBox="0 0 16 15" fill="none" xmlns="http://www.w3.org/2000/svg">
<path d="M7.99992 14.9375L7.06242 14.1042C4.95131 12.2014 3.2602 10.5486 1.98909 9.14583C0.71853 7.74306 0.083252 6.29167 0.083252 4.79167C0.083252 3.61111 0.482696 2.62139 1.28159 1.8225C2.07992 1.02417 3.06936 0.625 4.24992 0.625C4.91658 0.625 5.57992 0.781111 6.23992 1.09333C6.89936 1.40611 7.48603 1.90972 7.99992 2.60417C8.51381 1.90972 9.10075 1.40611 9.76075 1.09333C10.4202 0.781111 11.0833 0.625 11.7499 0.625C12.9305 0.625 13.9199 1.02417 14.7183 1.8225C15.5171 2.62139 15.9166 3.61111 15.9166 4.79167C15.9166 6.29167 15.281 7.74306 14.0099 9.14583C12.7394 10.5486 11.0485 12.2014 8.93742 14.1042L7.99992 14.9375ZM7.99992 13.25C9.98603 11.4444 11.5938 9.88889 12.8233 8.58333C14.0521 7.27778 14.6666 6.01389 14.6666 4.79167C14.6666 3.95833 14.3888 3.26389 13.8333 2.70833C13.2777 2.15278 12.5833 1.875 11.7499 1.875C11.0971 1.875 10.493 2.05556 9.93742 2.41667C9.38186 2.77778 8.93742 3.30556 8.60408 4H7.39575C7.06242 3.30556 6.61797 2.77778 6.06242 2.41667C5.50686 2.05556 4.9027 1.875 4.24992 1.875C3.41659 1.875 2.72214 2.15278 2.16659 2.70833C1.61103 3.26389 1.33325 3.95833 1.33325 4.79167C1.33325 6.01389 1.94797 7.27778 3.17742 8.58333C4.40631 9.88889 6.01381 11.4444 7.99992 13.25Z" fill="white" fill-opacity="0.56"/>
</svg>
