<svg width="16" height="16" viewBox="0 0 16 16" fill="none" xmlns="http://www.w3.org/2000/svg">
<path d="M6.08342 15.9168L5.75008 13.3752C5.52786 13.3057 5.3023 13.2016 5.07342 13.0627C4.84397 12.9238 4.63203 12.7779 4.43758 12.6252L2.08342 13.6252L0.166748 10.2918L2.20842 8.75016C2.18064 8.62516 2.16341 8.50016 2.15675 8.37516C2.14953 8.25016 2.14591 8.12516 2.14591 8.00016C2.14591 7.88905 2.14953 7.771 2.15675 7.646C2.16341 7.521 2.18064 7.38905 2.20842 7.25016L0.166748 5.7085L2.08342 2.396L4.43758 3.37516C4.63203 3.22238 4.84397 3.08016 5.07342 2.9485C5.3023 2.81627 5.52786 2.7085 5.75008 2.62516L6.08342 0.0834961H9.91675L10.2501 2.62516C10.5001 2.72239 10.7256 2.82988 10.9268 2.94766C11.1284 3.066 11.3334 3.2085 11.5417 3.37516L13.9167 2.396L15.8334 5.7085L13.7709 7.271C13.7987 7.40988 13.8126 7.53488 13.8126 7.646C13.8126 7.75711 13.8126 7.87516 13.8126 8.00016C13.8126 8.11127 13.809 8.22572 13.8017 8.3435C13.7951 8.46183 13.7779 8.59738 13.7501 8.75016L15.7917 10.2918L13.8751 13.6252L11.5417 12.6252C11.3334 12.7918 11.1217 12.9377 10.9067 13.0627C10.6912 13.1877 10.4723 13.2918 10.2501 13.3752L9.91675 15.9168H6.08342ZM8.00008 10.5002C8.69453 10.5002 9.2848 10.2571 9.77092 9.771C10.257 9.28488 10.5001 8.69461 10.5001 8.00016C10.5001 7.30572 10.257 6.71544 9.77092 6.22933C9.2848 5.74322 8.69453 5.50016 8.00008 5.50016C7.30564 5.50016 6.71536 5.74322 6.22925 6.22933C5.74314 6.71544 5.50008 7.30572 5.50008 8.00016C5.50008 8.69461 5.74314 9.28488 6.22925 9.771C6.71536 10.2571 7.30564 10.5002 8.00008 10.5002ZM8.00008 9.25016C7.65286 9.25016 7.35786 9.1285 7.11508 8.88516C6.87175 8.64238 6.75008 8.34738 6.75008 8.00016C6.75008 7.65294 6.87175 7.35794 7.11508 7.11516C7.35786 6.87183 7.65286 6.75016 8.00008 6.75016C8.3473 6.75016 8.6423 6.87183 8.88508 7.11516C9.12842 7.35794 9.25008 7.65294 9.25008 8.00016C9.25008 8.34738 9.12842 8.64238 8.88508 8.88516C8.6423 9.1285 8.3473 9.25016 8.00008 9.25016ZM7.16675 14.6668H8.81258L9.10425 12.4377C9.53481 12.3266 9.92369 12.1668 10.2709 11.9585C10.6181 11.7502 10.9584 11.4863 11.2917 11.1668L13.3542 12.0418L14.1876 10.6252L12.3751 9.271C12.4445 9.04877 12.4898 8.8335 12.5109 8.62516C12.5315 8.41683 12.5417 8.2085 12.5417 8.00016C12.5417 7.77794 12.5315 7.56627 12.5109 7.36516C12.4898 7.1635 12.4445 6.9585 12.3751 6.75016L14.1876 5.37516L13.3751 3.9585L11.2709 4.8335C10.9931 4.54183 10.6598 4.28127 10.2709 4.05183C9.88203 3.82294 9.49314 3.65989 9.10425 3.56266L8.83342 1.3335H7.18758L6.89592 3.56266C6.47925 3.65989 6.09036 3.81266 5.72925 4.021C5.36814 4.22933 5.02092 4.49322 4.68758 4.81266L2.62508 3.9585L1.81258 5.37516L3.60425 6.7085C3.5348 6.91683 3.48619 7.12516 3.45842 7.3335C3.43064 7.54183 3.41675 7.76405 3.41675 8.00016C3.41675 8.22238 3.43064 8.43766 3.45842 8.646C3.48619 8.85433 3.5348 9.06266 3.60425 9.271L1.81258 10.6252L2.62508 12.0418L4.68758 11.1668C5.00703 11.4863 5.3473 11.7502 5.70842 11.9585C6.06953 12.1668 6.46536 12.3266 6.89592 12.4377L7.16675 14.6668Z" fill="white" fill-opacity="0.56"/>
</svg>
